<svg xmlns="http://www.w3.org/2000/svg" viewBox="0 0 32 32" id="game"><path d="M9.84 6c-1.387 0-2.562.635-3.362 1.537-.801.902-1.289 2.041-1.602 3.213l-2.74 10.242c-.569 2.126.702 4.334 2.826 4.904 1.105.297 2.155-.084 2.867-.63.712-.547 1.236-1.212 1.776-1.752l3.484-3.49h5.822l3.485 3.49c.539.54 1.06 1.205 1.773 1.752.712.546 1.762.927 2.867.63a4.018 4.018 0 0 0 2.828-4.904l-2.74-10.242c-.313-1.172-.803-2.31-1.603-3.213C24.72 6.635 23.545 6 22.157 6Zm1.622 4.033c.557.01 1 .464.99 1.016v.986h.986a.997.997 0 0 1 1.014 1.008c-.01.557-.462.997-1.014.99h-.986v.986c.02 1.353-2.019 1.353-2 0v-.986h-.986c-1.352.02-1.352-2.017 0-1.998h.986v-.986a1 1 0 0 1 1.01-1.016zm9.02 0c1.645 0 3 1.355 3 3s-1.355 3-3 3-3-1.355-3-3 1.355-3 3-3z" color="#000" font-family="sans-serif" font-weight="400" overflow="visible" style="line-height:normal;font-variant-ligatures:normal;font-variant-position:normal;font-variant-caps:normal;font-variant-numeric:normal;font-variant-alternates:normal;font-feature-settings:normal;text-indent:0;text-align:start;text-decoration-line:none;text-decoration-style:solid;text-decoration-color:#000;text-transform:none;text-orientation:mixed;shape-padding:0;isolation:auto;mix-blend-mode:normal" fill="#000000"></path><path d="M20.482 12.033c.564 0 1 .436 1 1 0 .564-.436 1-1 1-.565 0-1-.436-1-1 0-.564.435-1 1-1z" color="#000" font-family="sans-serif" font-weight="400" overflow="visible" style="line-height:normal;font-variant-ligatures:normal;font-variant-position:normal;font-variant-caps:normal;font-variant-numeric:normal;font-variant-alternates:normal;font-feature-settings:normal;text-indent:0;text-align:start;text-decoration-line:none;text-decoration-style:solid;text-decoration-color:#000;text-transform:none;text-orientation:mixed;shape-padding:0;isolation:auto;mix-blend-mode:normal" fill="#000000"></path></svg>